<?xml version="1.0" standalone="no"?><!-- Generator: Gravit.io --><svg xmlns="http://www.w3.org/2000/svg" xmlns:xlink="http://www.w3.org/1999/xlink" style="isolation:isolate" viewBox="0 0 150.604 32.14" width="150.604" height="32.14"><defs><clipPath id="_clipPath_u77W5WbUrsCPSuHK42zxPQAtkivO3ZWb"><rect width="150.604" height="32.14"/></clipPath></defs><g clip-path="url(#_clipPath_u77W5WbUrsCPSuHK42zxPQAtkivO3ZWb)"><path d=" M 38.784 25.1 L 32.224 25.1 L 32.224 21.66 L 34.104 21.66 L 34.104 13 L 32.224 13 L 32.224 9.56 L 40.604 9.56 L 43.624 17.04 L 46.604 9.56 L 54.424 9.56 L 54.424 13 L 52.544 13 L 52.544 21.66 L 54.424 21.66 L 54.424 25.1 L 46.284 25.1 L 46.284 21.66 L 47.544 21.66 L 47.544 15.86 L 44.104 25.1 L 41.284 25.1 L 37.224 15.64 L 37.224 21.66 L 38.784 21.66 L 38.784 25.1 Z  M 59.784 25.28 L 59.784 25.28 Q 56.644 25.28 56.644 21.34 L 56.644 21.34 L 56.644 17.66 L 55.384 17.66 L 55.384 15.02 L 61.324 14.44 L 61.324 21.34 L 61.324 21.34 Q 61.324 21.72 61.604 22.04 L 61.604 22.04 L 61.604 22.04 Q 61.884 22.36 62.264 22.36 L 62.264 22.36 L 62.264 22.36 Q 62.704 22.36 62.954 22.06 L 62.954 22.06 L 62.954 22.06 Q 63.204 21.76 63.204 21.32 L 63.204 21.32 L 63.204 17.66 L 62.264 17.66 L 62.264 15.02 L 67.884 14.44 L 67.884 22.16 L 69.144 22.16 L 69.144 25.1 L 63.204 25.1 L 63.204 23.58 L 63.204 23.58 Q 62.684 24.38 61.824 24.83 L 61.824 24.83 L 61.824 24.83 Q 60.964 25.28 59.784 25.28 L 59.784 25.28 Z  M 78.584 25.1 L 70.684 25.1 L 70.684 22.16 L 72.404 22.16 L 72.404 13.16 L 70.684 13.16 L 70.684 10.5 L 77.084 9.86 L 77.084 22.16 L 78.584 22.16 L 78.584 25.1 Z  M 84.984 25.28 L 84.984 25.28 Q 83.084 25.28 82.154 24.31 L 82.154 24.31 L 82.154 24.31 Q 81.224 23.34 81.224 21.36 L 81.224 21.36 L 81.224 17.5 L 79.664 17.5 L 79.664 14.64 L 81.224 14.64 L 81.224 12.4 L 85.904 11.36 L 85.904 14.64 L 87.784 14.64 L 87.784 17.5 L 85.904 17.5 L 85.904 21.02 L 85.904 21.02 Q 85.904 21.46 86.234 21.75 L 86.234 21.75 L 86.234 21.75 Q 86.564 22.04 87.064 22.04 L 87.064 22.04 L 87.064 22.04 Q 87.424 22.04 87.784 21.98 L 87.784 21.98 L 87.784 24.7 L 87.784 24.7 Q 86.504 25.28 84.984 25.28 L 84.984 25.28 Z  M 93.104 13.62 L 93.104 13.62 Q 91.884 13.62 91.094 13.04 L 91.094 13.04 L 91.094 13.04 Q 90.304 12.46 90.304 11.38 L 90.304 11.38 L 90.304 11.38 Q 90.304 10.3 91.094 9.74 L 91.094 9.74 L 91.094 9.74 Q 91.884 9.18 93.124 9.18 L 93.124 9.18 L 93.124 9.18 Q 94.364 9.18 95.144 9.73 L 95.144 9.73 L 95.144 9.73 Q 95.924 10.28 95.924 11.38 L 95.924 11.38 L 95.924 11.38 Q 95.924 12.46 95.124 13.04 L 95.124 13.04 L 95.124 13.04 Q 94.324 13.62 93.104 13.62 L 93.104 13.62 Z  M 96.704 25.1 L 89.504 25.1 L 89.504 22.16 L 90.764 22.16 L 90.764 17.66 L 89.504 17.66 L 89.504 15.26 L 95.444 14.64 L 95.444 22.16 L 96.704 22.16 L 96.704 25.1 Z  M 102.984 25.28 L 102.984 25.28 Q 101.084 25.28 100.154 24.31 L 100.154 24.31 L 100.154 24.31 Q 99.224 23.34 99.224 21.36 L 99.224 21.36 L 99.224 17.5 L 97.664 17.5 L 97.664 14.64 L 99.224 14.64 L 99.224 12.4 L 103.904 11.36 L 103.904 14.64 L 105.784 14.64 L 105.784 17.5 L 103.904 17.5 L 103.904 21.02 L 103.904 21.02 Q 103.904 21.46 104.234 21.75 L 104.234 21.75 L 104.234 21.75 Q 104.564 22.04 105.064 22.04 L 105.064 22.04 L 105.064 22.04 Q 105.424 22.04 105.784 21.98 L 105.784 21.98 L 105.784 24.7 L 105.784 24.7 Q 104.504 25.28 102.984 25.28 L 102.984 25.28 Z  M 111.684 25.28 L 111.684 25.28 Q 108.544 25.28 108.544 21.34 L 108.544 21.34 L 108.544 17.66 L 107.284 17.66 L 107.284 15.02 L 113.224 14.44 L 113.224 21.34 L 113.224 21.34 Q 113.224 21.72 113.504 22.04 L 113.504 22.04 L 113.504 22.04 Q 113.784 22.36 114.164 22.36 L 114.164 22.36 L 114.164 22.36 Q 114.604 22.36 114.854 22.06 L 114.854 22.06 L 114.854 22.06 Q 115.104 21.76 115.104 21.32 L 115.104 21.32 L 115.104 17.66 L 114.164 17.66 L 114.164 15.02 L 119.784 14.44 L 119.784 22.16 L 121.044 22.16 L 121.044 25.1 L 115.104 25.1 L 115.104 23.58 L 115.104 23.58 Q 114.584 24.38 113.724 24.83 L 113.724 24.83 L 113.724 24.83 Q 112.864 25.28 111.684 25.28 L 111.684 25.28 Z  M 126.924 25.28 L 126.924 25.28 Q 125.504 25.28 124.474 24.53 L 124.474 24.53 L 124.474 24.53 Q 123.444 23.78 122.914 22.51 L 122.914 22.51 L 122.914 22.51 Q 122.384 21.24 122.384 19.72 L 122.384 19.72 L 122.384 19.72 Q 122.384 18.32 122.924 17.11 L 122.924 17.11 L 122.924 17.11 Q 123.464 15.9 124.474 15.17 L 124.474 15.17 L 124.474 15.17 Q 125.484 14.44 126.844 14.44 L 126.844 14.44 L 126.844 14.44 Q 127.844 14.44 128.554 14.76 L 128.554 14.76 L 128.554 14.76 Q 129.264 15.08 129.884 15.72 L 129.884 15.72 L 129.884 13.16 L 128.324 13.16 L 128.324 10.5 L 134.584 9.86 L 134.584 22.16 L 135.824 22.16 L 135.824 25.1 L 129.804 25.1 L 129.804 23.84 L 129.804 23.84 Q 129.324 24.48 128.584 24.87 L 128.584 24.87 L 128.584 24.87 Q 127.844 25.26 126.924 25.28 L 126.924 25.28 Z  M 128.484 22.42 L 128.484 22.42 Q 128.944 22.42 129.314 22.2 L 129.314 22.2 L 129.314 22.2 Q 129.684 21.98 129.884 21.68 L 129.884 21.68 L 129.884 17.98 L 129.884 17.98 Q 129.664 17.72 129.284 17.51 L 129.284 17.51 L 129.284 17.51 Q 128.904 17.3 128.484 17.3 L 128.484 17.3 L 128.484 17.3 Q 127.724 17.3 127.244 17.92 L 127.244 17.92 L 127.244 17.92 Q 126.764 18.54 126.764 19.72 L 126.764 19.72 L 126.764 19.72 Q 126.764 20.92 127.204 21.67 L 127.204 21.67 L 127.204 21.67 Q 127.644 22.42 128.484 22.42 L 128.484 22.42 Z  M 143.024 25.28 L 143.024 25.28 Q 141.204 25.28 139.864 24.61 L 139.864 24.61 L 139.864 24.61 Q 138.524 23.94 137.804 22.7 L 137.804 22.7 L 137.804 22.7 Q 137.084 21.46 137.084 19.8 L 137.084 19.8 L 137.084 19.8 Q 137.084 18.16 137.784 16.95 L 137.784 16.95 L 137.784 16.95 Q 138.484 15.74 139.754 15.09 L 139.754 15.09 L 139.754 15.09 Q 141.024 14.44 142.724 14.44 L 142.724 14.44 L 142.724 14.44 Q 144.304 14.44 145.504 15.06 L 145.504 15.06 L 145.504 15.06 Q 146.704 15.68 147.364 16.82 L 147.364 16.82 L 147.364 16.82 Q 148.024 17.96 148.024 19.48 L 148.024 19.48 L 148.024 19.48 Q 148.024 20 147.864 20.48 L 147.864 20.48 L 141.784 20.48 L 141.784 20.48 Q 141.784 21.4 142.474 21.95 L 142.474 21.95 L 142.474 21.95 Q 143.164 22.5 144.144 22.5 L 144.144 22.5 L 144.144 22.5 Q 144.884 22.5 145.774 22.24 L 145.774 22.24 L 145.774 22.24 Q 146.664 21.98 147.564 21.44 L 147.564 21.44 L 147.724 21.5 L 147.724 24.12 L 147.724 24.12 Q 146.724 24.7 145.664 24.99 L 145.664 24.99 L 145.664 24.99 Q 144.604 25.28 143.024 25.28 L 143.024 25.28 Z  M 141.784 18.76 L 144.284 18.76 L 144.284 18.56 L 144.284 18.56 Q 144.284 17.86 143.964 17.36 L 143.964 17.36 L 143.964 17.36 Q 143.644 16.86 143.024 16.86 L 143.024 16.86 L 143.024 16.86 Q 142.504 16.86 142.144 17.37 L 142.144 17.37 L 142.144 17.37 Q 141.784 17.88 141.784 18.48 L 141.784 18.48 L 141.784 18.76 Z " fill-rule="evenodd" fill="rgb(0,0,0)"/><path d=" M 20.304 4.958 C 18.825 4.341 17.202 4 15.5 4 C 8.601 4 3 9.601 3 16.5 C 3 23.399 8.601 29 15.5 29 C 22.399 29 28 23.399 28 16.5 C 28 14.755 27.641 13.092 26.994 11.583 L 26.994 15.75 C 26.994 17.425 25.633 18.786 23.958 18.786 C 22.282 18.784 20.924 17.426 20.923 15.75 C 20.923 14.076 22.284 12.714 23.958 12.714 C 24.166 12.714 24.369 12.735 24.566 12.775 L 24.566 9.342 L 18.494 10.016 L 18.494 16.964 C 18.494 18.639 17.133 20 15.459 20 C 13.783 19.999 12.424 18.64 12.423 16.964 C 12.423 15.29 13.784 13.929 15.459 13.929 C 15.667 13.929 15.87 13.95 16.066 13.99 L 16.066 10.286 L 16.066 5.429 L 20.304 4.958 Z " fill="rgb(0,0,0)" fill-opacity="0.5"/><path d=" M 16.066 10.524 C 15.879 10.508 15.691 10.5 15.5 10.5 C 11.913 10.5 9 13.413 9 17 C 9 20.587 11.913 23.5 15.5 23.5 C 18.752 23.5 21.449 21.107 21.913 17.983 C 21.303 17.432 20.924 16.636 20.923 15.75 C 20.923 15.184 21.078 14.654 21.353 14.202 C 20.755 12.924 19.743 11.88 18.494 11.23 L 18.494 16.964 C 18.494 18.639 17.133 20 15.459 20 C 13.783 19.999 12.424 18.64 12.423 16.964 C 12.423 15.29 13.784 13.929 15.459 13.929 C 15.667 13.929 15.87 13.95 16.066 13.99 L 16.066 10.524 Z " fill="rgb(0,0,0)" fill-opacity="0.5"/></g></svg>
