<?xml version="1.0" encoding="UTF-8" standalone="no"?>
<svg
   xmlns:dc="http://purl.org/dc/elements/1.1/"
   xmlns:cc="http://creativecommons.org/ns#"
   xmlns:rdf="http://www.w3.org/1999/02/22-rdf-syntax-ns#"
   xmlns:svg="http://www.w3.org/2000/svg"
   xmlns="http://www.w3.org/2000/svg"
   viewBox="0 0 541.97333 120.32"
   height="120.32"
   width="541.97333"
   xml:space="preserve"
   id="svg2"
   version="1.1"><metadata
     id="metadata8"><rdf:RDF><cc:Work
         rdf:about=""><dc:format>image/svg+xml</dc:format><dc:type
           rdf:resource="http://purl.org/dc/dcmitype/StillImage" /></cc:Work></rdf:RDF></metadata><defs
     id="defs6" /><g
     transform="matrix(1.3333333,0,0,-1.3333333,0,120.32)"
     id="g10"><g
       transform="scale(0.1)"
       id="g12"><path
         id="path14"
         style="fill:#ec2629;fill-opacity:1;fill-rule:nonzero;stroke:none"
         d="M 0,0.0546875 H 268.281 V 81.3594 H 0 V 0.0546875" /><path
         id="path16"
         style="fill:#ec2629;fill-opacity:1;fill-rule:nonzero;stroke:none"
         d="m 0,105.727 h 268.281 v 81.304 H 0 v -81.304" /><path
         id="path18"
         style="fill:#ec2629;fill-opacity:1;fill-rule:nonzero;stroke:none"
         d="m 0,211.398 h 268.281 v 81.301 H 0 v -81.301" /><path
         id="path20"
         style="fill:#f17a6e;fill-opacity:1;fill-rule:nonzero;stroke:none"
         d="m 0,317.094 h 268.281 v 81.277 H 0 v -81.277" /><path
         id="path22"
         style="fill:#f17a6e;fill-opacity:1;fill-rule:nonzero;stroke:none"
         d="M 0,422.797 H 268.281 V 504.07 H 0 v -81.273" /><path
         id="path24"
         style="fill:#f6dd05;fill-opacity:1;fill-rule:nonzero;stroke:none"
         d="M 300.797,0.0546875 H 569.078 V 81.3594 H 300.797 V 0.0546875" /><path
         id="path26"
         style="fill:#f6dd05;fill-opacity:1;fill-rule:nonzero;stroke:none"
         d="m 300.797,105.727 h 268.281 v 81.304 H 300.797 v -81.304" /><path
         id="path28"
         style="fill:#f6dd05;fill-opacity:1;fill-rule:nonzero;stroke:none"
         d="m 300.797,211.398 h 268.281 v 81.301 H 300.797 v -81.301" /><path
         id="path30"
         style="fill:#d81996;fill-opacity:1;fill-rule:nonzero;stroke:none"
         d="M 601.59,0.0546875 H 869.871 V 81.3594 H 601.59 V 0.0546875" /><path
         id="path32"
         style="fill:#d81996;fill-opacity:1;fill-rule:nonzero;stroke:none"
         d="m 601.59,105.727 h 268.281 v 81.304 H 601.59 v -81.304" /><path
         id="path34"
         style="fill:#d81996;fill-opacity:1;fill-rule:nonzero;stroke:none"
         d="m 601.59,211.398 h 268.281 v 81.301 H 601.59 v -81.301" /><path
         id="path36"
         style="fill:#e78dcc;fill-opacity:1;fill-rule:nonzero;stroke:none"
         d="m 601.59,317.094 h 268.281 v 81.277 H 601.59 v -81.277" /><path
         id="path38"
         style="fill:#e78dcc;fill-opacity:1;fill-rule:nonzero;stroke:none"
         d="M 601.59,422.797 H 869.871 V 504.07 H 601.59 v -81.273" /><path
         id="path40"
         style="fill:#e78dcc;fill-opacity:1;fill-rule:nonzero;stroke:none"
         d="M 601.59,528.465 H 869.871 V 609.77 H 601.59 v -81.305" /><path
         id="path42"
         style="fill:#e78dcc;fill-opacity:1;fill-rule:nonzero;stroke:none"
         d="m 601.59,634.137 h 268.281 v 81.304 H 601.59 v -81.304" /><path
         id="path44"
         style="fill:#adda1a;fill-opacity:1;fill-rule:nonzero;stroke:none"
         d="M 902.387,0.0546875 H 1170.67 V 81.3594 H 902.387 V 0.0546875" /><path
         id="path46"
         style="fill:#adda1a;fill-opacity:1;fill-rule:nonzero;stroke:none"
         d="m 902.387,105.727 h 268.283 v 81.304 H 902.387 v -81.304" /><path
         id="path48"
         style="fill:#adda1a;fill-opacity:1;fill-rule:nonzero;stroke:none"
         d="m 902.387,211.398 h 268.283 v 81.301 H 902.387 v -81.301" /><path
         id="path50"
         style="fill:#d6e465;fill-opacity:1;fill-rule:nonzero;stroke:none"
         d="m 902.387,317.094 h 268.283 v 81.277 H 902.387 v -81.277" /><path
         id="path52"
         style="fill:#d6e465;fill-opacity:1;fill-rule:nonzero;stroke:none"
         d="M 902.387,422.797 H 1170.67 V 504.07 H 902.387 v -81.273" /><path
         id="path54"
         style="fill:#56bbe9;fill-opacity:1;fill-rule:nonzero;stroke:none"
         d="m 1203.18,0.0546875 h 268.3 V 81.3594 h -268.3 V 0.0546875" /><path
         id="path56"
         style="fill:#56bbe9;fill-opacity:1;fill-rule:nonzero;stroke:none"
         d="m 1203.18,105.727 h 268.3 v 81.304 h -268.3 v -81.304" /><path
         id="path58"
         style="fill:#56bbe9;fill-opacity:1;fill-rule:nonzero;stroke:none"
         d="m 1203.18,211.422 h 268.3 v 81.308 h -268.3 v -81.308" /><path
         id="path60"
         style="fill:#b0d8e6;fill-opacity:1;fill-rule:nonzero;stroke:none"
         d="m 1203.18,317.094 h 268.3 v 81.304 h -268.3 v -81.304" /><path
         id="path62"
         style="fill:#b0d8e6;fill-opacity:1;fill-rule:nonzero;stroke:none"
         d="m 1203.18,422.797 h 268.3 v 81.301 h -268.3 v -81.301" /><path
         id="path64"
         style="fill:#b0d8e6;fill-opacity:1;fill-rule:nonzero;stroke:none"
         d="m 1203.18,528.492 h 268.3 v 81.278 h -268.3 v -81.278" /><path
         id="path66"
         style="fill:#b0d8e6;fill-opacity:1;fill-rule:nonzero;stroke:none"
         d="m 1203.18,634.191 h 268.3 v 81.278 h -268.3 v -81.278" /><path
         id="path68"
         style="fill:#b0d8e6;fill-opacity:1;fill-rule:nonzero;stroke:none"
         d="m 1203.18,739.859 h 268.3 v 81.309 h -268.3 v -81.309" /><path
         id="path70"
         style="fill:#ffffff;fill-opacity:1;fill-rule:nonzero;stroke:none"
         d="m 1699.04,105.055 h 63.01 c 92.51,0 107.66,48.761 107.66,203.75 V 618.73 c 0,133.762 -11.45,178.743 -117.63,178.743 h -53.04 z m -121.9,797.39 h 201.14 c 202.48,0 221.59,-70.859 221.59,-333.343 V 300.852 C 1999.87,69.625 1953.37,0.0546875 1755.96,0.0546875 H 1577.14 V 902.445" /><path
         id="path72"
         style="fill:#ffffff;fill-opacity:1;fill-rule:nonzero;stroke:none"
         d="m 2048.61,902.445 h 341.44 V 795.176 h -219.5 V 512.219 h 203.23 V 406.523 H 2170.55 V 107.238 h 219.5 V 0.0546875 H 2048.61 V 902.445" /><path
         id="path74"
         style="fill:#ffffff;fill-opacity:1;fill-rule:nonzero;stroke:none"
         d="m 2438.84,902.445 h 341.44 V 795.176 H 2560.79 V 512.219 h 203.24 V 406.523 H 2560.79 V 107.238 h 219.49 V 0.0546875 H 2438.84 V 902.445" /><path
         id="path76"
         style="fill:#ffffff;fill-opacity:1;fill-rule:nonzero;stroke:none"
         d="M 3276.16,902.445 H 3617.6 V 795.176 H 3398.08 V 512.219 h 203.28 V 406.523 H 3398.08 V 107.238 H 3617.6 V 0.0546875 H 3276.16 V 902.445" /><path
         id="path78"
         style="fill:#ffffff;fill-opacity:1;fill-rule:nonzero;stroke:none"
         d="m 2829.04,105.695 280.94,691.02 h -280.94 v 105.672 h 398.33 V 796.715 l -276.11,-691.02 h 276.11 V 0 L 2829.04,0.0546875 V 105.695" /><path
         id="path80"
         style="fill:#ffffff;fill-opacity:1;fill-rule:nonzero;stroke:none"
         d="m 3788.33,504.07 h 37.82 c 98.75,0 113.82,12.184 113.82,147.149 0,133.761 -11.99,145.554 -89.4,145.554 h -62.24 z m -121.94,398.317 h 195.1 c 182.49,0 195.27,-46.492 195.27,-243.969 0,-121.188 -11.43,-180.449 -113.94,-211.68 v 0 c 84.98,-8.738 114.1,-53.097 114.1,-138.047 V 112.473 c 0,-32.5433 0.23,-74.9183 7.85,-112.4183125 H 3942.82 C 3930.28,22.5742 3934.76,44.7266 3934.76,80.9961 V 284.691 c 0,85 -16.14,105.559 -98.64,105.559 h -47.79 V 0 L 3666.39,0.0546875 V 902.387" /></g></g></svg>