<?xml version="1.0" standalone="no"?><!-- Generator: Gravit.io --><svg xmlns="http://www.w3.org/2000/svg" xmlns:xlink="http://www.w3.org/1999/xlink" style="isolation:isolate" viewBox="0 0 150 32" width="150" height="32"><defs><clipPath id="_clipPath_SNXC38PUtMcouxEejxx7z0oF2WZmKck3"><rect width="150" height="32"/></clipPath></defs><g clip-path="url(#_clipPath_SNXC38PUtMcouxEejxx7z0oF2WZmKck3)"><path d=" M 38.76 25.1 L 32.2 25.1 L 32.2 21.66 L 34.08 21.66 L 34.08 13 L 32.2 13 L 32.2 9.56 L 40.58 9.56 L 43.6 17.04 L 46.58 9.56 L 54.4 9.56 L 54.4 13 L 52.52 13 L 52.52 21.66 L 54.4 21.66 L 54.4 25.1 L 46.26 25.1 L 46.26 21.66 L 47.52 21.66 L 47.52 15.86 L 44.08 25.1 L 41.26 25.1 L 37.2 15.64 L 37.2 21.66 L 38.76 21.66 L 38.76 25.1 Z  M 59.76 25.28 L 59.76 25.28 Q 56.62 25.28 56.62 21.34 L 56.62 21.34 L 56.62 17.66 L 55.36 17.66 L 55.36 15.02 L 61.3 14.44 L 61.3 21.34 L 61.3 21.34 Q 61.3 21.72 61.58 22.04 L 61.58 22.04 L 61.58 22.04 Q 61.86 22.36 62.24 22.36 L 62.24 22.36 L 62.24 22.36 Q 62.68 22.36 62.93 22.06 L 62.93 22.06 L 62.93 22.06 Q 63.18 21.76 63.18 21.32 L 63.18 21.32 L 63.18 17.66 L 62.24 17.66 L 62.24 15.02 L 67.86 14.44 L 67.86 22.16 L 69.12 22.16 L 69.12 25.1 L 63.18 25.1 L 63.18 23.58 L 63.18 23.58 Q 62.66 24.38 61.8 24.83 L 61.8 24.83 L 61.8 24.83 Q 60.94 25.28 59.76 25.28 L 59.76 25.28 Z  M 78.56 25.1 L 70.66 25.1 L 70.66 22.16 L 72.38 22.16 L 72.38 13.16 L 70.66 13.16 L 70.66 10.5 L 77.06 9.86 L 77.06 22.16 L 78.56 22.16 L 78.56 25.1 Z  M 84.96 25.28 L 84.96 25.28 Q 83.06 25.28 82.13 24.31 L 82.13 24.31 L 82.13 24.31 Q 81.2 23.34 81.2 21.36 L 81.2 21.36 L 81.2 17.5 L 79.64 17.5 L 79.64 14.64 L 81.2 14.64 L 81.2 12.4 L 85.88 11.36 L 85.88 14.64 L 87.76 14.64 L 87.76 17.5 L 85.88 17.5 L 85.88 21.02 L 85.88 21.02 Q 85.88 21.46 86.21 21.75 L 86.21 21.75 L 86.21 21.75 Q 86.54 22.04 87.04 22.04 L 87.04 22.04 L 87.04 22.04 Q 87.4 22.04 87.76 21.98 L 87.76 21.98 L 87.76 24.7 L 87.76 24.7 Q 86.48 25.28 84.96 25.28 L 84.96 25.28 Z  M 93.08 13.62 L 93.08 13.62 Q 91.86 13.62 91.07 13.04 L 91.07 13.04 L 91.07 13.04 Q 90.28 12.46 90.28 11.38 L 90.28 11.38 L 90.28 11.38 Q 90.28 10.3 91.07 9.74 L 91.07 9.74 L 91.07 9.74 Q 91.86 9.18 93.1 9.18 L 93.1 9.18 L 93.1 9.18 Q 94.34 9.18 95.12 9.73 L 95.12 9.73 L 95.12 9.73 Q 95.9 10.28 95.9 11.38 L 95.9 11.38 L 95.9 11.38 Q 95.9 12.46 95.1 13.04 L 95.1 13.04 L 95.1 13.04 Q 94.3 13.62 93.08 13.62 L 93.08 13.62 Z  M 96.68 25.1 L 89.48 25.1 L 89.48 22.16 L 90.74 22.16 L 90.74 17.66 L 89.48 17.66 L 89.48 15.26 L 95.42 14.64 L 95.42 22.16 L 96.68 22.16 L 96.68 25.1 Z  M 102.96 25.28 L 102.96 25.28 Q 101.06 25.28 100.13 24.31 L 100.13 24.31 L 100.13 24.31 Q 99.2 23.34 99.2 21.36 L 99.2 21.36 L 99.2 17.5 L 97.64 17.5 L 97.64 14.64 L 99.2 14.64 L 99.2 12.4 L 103.88 11.36 L 103.88 14.64 L 105.76 14.64 L 105.76 17.5 L 103.88 17.5 L 103.88 21.02 L 103.88 21.02 Q 103.88 21.46 104.21 21.75 L 104.21 21.75 L 104.21 21.75 Q 104.54 22.04 105.04 22.04 L 105.04 22.04 L 105.04 22.04 Q 105.4 22.04 105.76 21.98 L 105.76 21.98 L 105.76 24.7 L 105.76 24.7 Q 104.48 25.28 102.96 25.28 L 102.96 25.28 Z  M 111.66 25.28 L 111.66 25.28 Q 108.52 25.28 108.52 21.34 L 108.52 21.34 L 108.52 17.66 L 107.26 17.66 L 107.26 15.02 L 113.2 14.44 L 113.2 21.34 L 113.2 21.34 Q 113.2 21.72 113.48 22.04 L 113.48 22.04 L 113.48 22.04 Q 113.76 22.36 114.14 22.36 L 114.14 22.36 L 114.14 22.36 Q 114.58 22.36 114.83 22.06 L 114.83 22.06 L 114.83 22.06 Q 115.08 21.76 115.08 21.32 L 115.08 21.32 L 115.08 17.66 L 114.14 17.66 L 114.14 15.02 L 119.76 14.44 L 119.76 22.16 L 121.02 22.16 L 121.02 25.1 L 115.08 25.1 L 115.08 23.58 L 115.08 23.58 Q 114.56 24.38 113.7 24.83 L 113.7 24.83 L 113.7 24.83 Q 112.84 25.28 111.66 25.28 L 111.66 25.28 Z  M 126.9 25.28 L 126.9 25.28 Q 125.48 25.28 124.45 24.53 L 124.45 24.53 L 124.45 24.53 Q 123.42 23.78 122.89 22.51 L 122.89 22.51 L 122.89 22.51 Q 122.36 21.24 122.36 19.72 L 122.36 19.72 L 122.36 19.72 Q 122.36 18.32 122.9 17.11 L 122.9 17.11 L 122.9 17.11 Q 123.44 15.9 124.45 15.17 L 124.45 15.17 L 124.45 15.17 Q 125.46 14.44 126.82 14.44 L 126.82 14.44 L 126.82 14.44 Q 127.82 14.44 128.53 14.76 L 128.53 14.76 L 128.53 14.76 Q 129.24 15.08 129.86 15.72 L 129.86 15.72 L 129.86 13.16 L 128.3 13.16 L 128.3 10.5 L 134.56 9.86 L 134.56 22.16 L 135.8 22.16 L 135.8 25.1 L 129.78 25.1 L 129.78 23.84 L 129.78 23.84 Q 129.3 24.48 128.56 24.87 L 128.56 24.87 L 128.56 24.87 Q 127.82 25.26 126.9 25.28 L 126.9 25.28 Z  M 128.46 22.42 L 128.46 22.42 Q 128.92 22.42 129.29 22.2 L 129.29 22.2 L 129.29 22.2 Q 129.66 21.98 129.86 21.68 L 129.86 21.68 L 129.86 17.98 L 129.86 17.98 Q 129.64 17.72 129.26 17.51 L 129.26 17.51 L 129.26 17.51 Q 128.88 17.3 128.46 17.3 L 128.46 17.3 L 128.46 17.3 Q 127.7 17.3 127.22 17.92 L 127.22 17.92 L 127.22 17.92 Q 126.74 18.54 126.74 19.72 L 126.74 19.72 L 126.74 19.72 Q 126.74 20.92 127.18 21.67 L 127.18 21.67 L 127.18 21.67 Q 127.62 22.42 128.46 22.42 L 128.46 22.42 Z  M 143 25.28 L 143 25.28 Q 141.18 25.28 139.84 24.61 L 139.84 24.61 L 139.84 24.61 Q 138.5 23.94 137.78 22.7 L 137.78 22.7 L 137.78 22.7 Q 137.06 21.46 137.06 19.8 L 137.06 19.8 L 137.06 19.8 Q 137.06 18.16 137.76 16.95 L 137.76 16.95 L 137.76 16.95 Q 138.46 15.74 139.73 15.09 L 139.73 15.09 L 139.73 15.09 Q 141 14.44 142.7 14.44 L 142.7 14.44 L 142.7 14.44 Q 144.28 14.44 145.48 15.06 L 145.48 15.06 L 145.48 15.06 Q 146.68 15.68 147.34 16.82 L 147.34 16.82 L 147.34 16.82 Q 148 17.96 148 19.48 L 148 19.48 L 148 19.48 Q 148 20 147.84 20.48 L 147.84 20.48 L 141.76 20.48 L 141.76 20.48 Q 141.76 21.4 142.45 21.95 L 142.45 21.95 L 142.45 21.95 Q 143.14 22.5 144.12 22.5 L 144.12 22.5 L 144.12 22.5 Q 144.86 22.5 145.75 22.24 L 145.75 22.24 L 145.75 22.24 Q 146.64 21.98 147.54 21.44 L 147.54 21.44 L 147.7 21.5 L 147.7 24.12 L 147.7 24.12 Q 146.7 24.7 145.64 24.99 L 145.64 24.99 L 145.64 24.99 Q 144.58 25.28 143 25.28 L 143 25.28 Z  M 141.76 18.76 L 144.26 18.76 L 144.26 18.56 L 144.26 18.56 Q 144.26 17.86 143.94 17.36 L 143.94 17.36 L 143.94 17.36 Q 143.62 16.86 143 16.86 L 143 16.86 L 143 16.86 Q 142.48 16.86 142.12 17.37 L 142.12 17.37 L 142.12 17.37 Q 141.76 17.88 141.76 18.48 L 141.76 18.48 L 141.76 18.76 Z " fill-rule="evenodd" fill="rgb(0,0,0)"/><path d=" M 20.304 4.958 C 18.825 4.341 17.202 4 15.5 4 C 8.601 4 3 9.601 3 16.5 C 3 23.399 8.601 29 15.5 29 C 22.399 29 28 23.399 28 16.5 C 28 14.755 27.641 13.092 26.994 11.583 L 26.994 15.75 C 26.994 17.425 25.633 18.786 23.958 18.786 C 22.282 18.784 20.924 17.426 20.923 15.75 C 20.923 14.076 22.284 12.714 23.958 12.714 C 24.166 12.714 24.369 12.735 24.566 12.775 L 24.566 9.342 L 18.494 10.016 L 18.494 16.964 C 18.494 18.639 17.133 20 15.459 20 C 13.783 19.999 12.424 18.64 12.423 16.964 C 12.423 15.29 13.784 13.929 15.459 13.929 C 15.667 13.929 15.87 13.95 16.066 13.99 L 16.066 10.286 L 16.066 5.429 L 20.304 4.958 Z " fill="rgb(0,0,0)" fill-opacity="0.5"/><path d=" M 16.066 10.524 C 15.879 10.508 15.691 10.5 15.5 10.5 C 11.913 10.5 9 13.413 9 17 C 9 20.587 11.913 23.5 15.5 23.5 C 18.752 23.5 21.449 21.107 21.913 17.983 C 21.303 17.432 20.924 16.636 20.923 15.75 C 20.923 15.184 21.078 14.654 21.353 14.202 C 20.755 12.924 19.743 11.88 18.494 11.23 L 18.494 16.964 C 18.494 18.639 17.133 20 15.459 20 C 13.783 19.999 12.424 18.64 12.423 16.964 C 12.423 15.29 13.784 13.929 15.459 13.929 C 15.667 13.929 15.87 13.95 16.066 13.99 L 16.066 10.524 Z " fill="rgb(0,0,0)" fill-opacity="0.5"/></g></svg>