<?xml version="1.0" standalone="no"?><!-- Generator: Gravit.io --><svg xmlns="http://www.w3.org/2000/svg" xmlns:xlink="http://www.w3.org/1999/xlink" style="isolation:isolate" viewBox="0 0 2550 512" width="2550" height="512"><defs><clipPath id="_clipPath_60yUj5eFtNT5ahCt5LCKs2lzWovFZcpz"><rect width="2550" height="512"/></clipPath></defs><g clip-path="url(#_clipPath_60yUj5eFtNT5ahCt5LCKs2lzWovFZcpz)"><g id="Group"><path d=" M 705.538 383.093 L 600 383.093 L 600 327.54 L 630.246 327.54 L 630.246 187.689 L 600 187.689 L 600 132.137 L 734.818 132.137 L 783.404 252.932 L 831.347 132.137 L 957.155 132.137 L 957.155 187.689 L 926.91 187.689 L 926.91 327.54 L 957.155 327.54 L 957.155 383.093 L 826.198 383.093 L 826.198 327.54 L 846.469 327.54 L 846.469 233.876 L 791.126 383.093 L 745.758 383.093 L 680.44 230.323 L 680.44 327.54 L 705.538 327.54 L 705.538 383.093 Z  M 1043.388 386 L 1043.388 386 Q 992.871 386 992.871 322.373 L 992.871 322.373 L 992.871 262.944 L 972.6 262.944 L 972.6 220.311 L 1068.163 210.944 L 1068.163 322.373 L 1068.163 322.373 Q 1068.163 328.509 1072.668 333.677 L 1072.668 333.677 L 1072.668 333.677 Q 1077.173 338.845 1083.286 338.845 L 1083.286 338.845 L 1083.286 338.845 Q 1090.365 338.845 1094.387 334 L 1094.387 334 L 1094.387 334 Q 1098.409 329.155 1098.409 322.05 L 1098.409 322.05 L 1098.409 262.944 L 1083.286 262.944 L 1083.286 220.311 L 1173.701 210.944 L 1173.701 335.615 L 1193.972 335.615 L 1193.972 383.093 L 1098.409 383.093 L 1098.409 358.547 L 1098.409 358.547 Q 1090.043 371.466 1076.207 378.733 L 1076.207 378.733 L 1076.207 378.733 Q 1062.371 386 1043.388 386 L 1043.388 386 Z  M 1345.843 383.093 L 1218.748 383.093 L 1218.748 335.615 L 1246.419 335.615 L 1246.419 190.273 L 1218.748 190.273 L 1218.748 147.317 L 1321.711 136.981 L 1321.711 335.615 L 1345.843 335.615 L 1345.843 383.093 Z  M 1448.807 386 L 1448.807 386 Q 1418.24 386 1403.278 370.335 L 1403.278 370.335 L 1403.278 370.335 Q 1388.316 354.671 1388.316 322.696 L 1388.316 322.696 L 1388.316 260.36 L 1363.219 260.36 L 1363.219 214.174 L 1388.316 214.174 L 1388.316 178 L 1463.608 161.205 L 1463.608 214.174 L 1493.854 214.174 L 1493.854 260.36 L 1463.608 260.36 L 1463.608 317.205 L 1463.608 317.205 Q 1463.608 324.311 1468.917 328.994 L 1468.917 328.994 L 1468.917 328.994 Q 1474.226 333.677 1482.27 333.677 L 1482.27 333.677 L 1482.27 333.677 Q 1488.062 333.677 1493.854 332.708 L 1493.854 332.708 L 1493.854 376.634 L 1493.854 376.634 Q 1473.261 386 1448.807 386 L 1448.807 386 Z  M 1579.443 197.702 L 1579.443 197.702 Q 1559.815 197.702 1547.105 188.335 L 1547.105 188.335 L 1547.105 188.335 Q 1534.396 178.969 1534.396 161.528 L 1534.396 161.528 L 1534.396 161.528 Q 1534.396 144.087 1547.105 135.043 L 1547.105 135.043 L 1547.105 135.043 Q 1559.815 126 1579.764 126 L 1579.764 126 L 1579.764 126 Q 1599.713 126 1612.262 134.882 L 1612.262 134.882 L 1612.262 134.882 Q 1624.811 143.764 1624.811 161.528 L 1624.811 161.528 L 1624.811 161.528 Q 1624.811 178.969 1611.94 188.335 L 1611.94 188.335 L 1611.94 188.335 Q 1599.07 197.702 1579.443 197.702 L 1579.443 197.702 Z  M 1637.36 383.093 L 1521.525 383.093 L 1521.525 335.615 L 1541.796 335.615 L 1541.796 262.944 L 1521.525 262.944 L 1521.525 224.186 L 1617.089 214.174 L 1617.089 335.615 L 1637.36 335.615 L 1637.36 383.093 Z  M 1738.393 386 L 1738.393 386 Q 1707.825 386 1692.863 370.335 L 1692.863 370.335 L 1692.863 370.335 Q 1677.902 354.671 1677.902 322.696 L 1677.902 322.696 L 1677.902 260.36 L 1652.804 260.36 L 1652.804 214.174 L 1677.902 214.174 L 1677.902 178 L 1753.194 161.205 L 1753.194 214.174 L 1783.439 214.174 L 1783.439 260.36 L 1753.194 260.36 L 1753.194 317.205 L 1753.194 317.205 Q 1753.194 324.311 1758.503 328.994 L 1758.503 328.994 L 1758.503 328.994 Q 1763.812 333.677 1771.856 333.677 L 1771.856 333.677 L 1771.856 333.677 Q 1777.648 333.677 1783.439 332.708 L 1783.439 332.708 L 1783.439 376.634 L 1783.439 376.634 Q 1762.847 386 1738.393 386 L 1738.393 386 Z  M 1878.359 386 L 1878.359 386 Q 1827.842 386 1827.842 322.373 L 1827.842 322.373 L 1827.842 262.944 L 1807.572 262.944 L 1807.572 220.311 L 1903.135 210.944 L 1903.135 322.373 L 1903.135 322.373 Q 1903.135 328.509 1907.639 333.677 L 1907.639 333.677 L 1907.639 333.677 Q 1912.144 338.845 1918.257 338.845 L 1918.257 338.845 L 1918.257 338.845 Q 1925.336 338.845 1929.358 334 L 1929.358 334 L 1929.358 334 Q 1933.38 329.155 1933.38 322.05 L 1933.38 322.05 L 1933.38 262.944 L 1918.257 262.944 L 1918.257 220.311 L 2008.673 210.944 L 2008.673 335.615 L 2028.943 335.615 L 2028.943 383.093 L 1933.38 383.093 L 1933.38 358.547 L 1933.38 358.547 Q 1925.014 371.466 1911.179 378.733 L 1911.179 378.733 L 1911.179 378.733 Q 1897.343 386 1878.359 386 L 1878.359 386 Z  M 2123.541 386 L 2123.541 386 Q 2100.696 386 2084.126 373.888 L 2084.126 373.888 L 2084.126 373.888 Q 2067.555 361.776 2059.028 341.267 L 2059.028 341.267 L 2059.028 341.267 Q 2050.502 320.758 2050.502 296.211 L 2050.502 296.211 L 2050.502 296.211 Q 2050.502 273.602 2059.189 254.062 L 2059.189 254.062 L 2059.189 254.062 Q 2067.877 234.522 2084.126 222.733 L 2084.126 222.733 L 2084.126 222.733 Q 2100.375 210.944 2122.254 210.944 L 2122.254 210.944 L 2122.254 210.944 Q 2138.342 210.944 2149.765 216.112 L 2149.765 216.112 L 2149.765 216.112 Q 2161.188 221.279 2171.162 231.615 L 2171.162 231.615 L 2171.162 190.273 L 2146.065 190.273 L 2146.065 147.317 L 2246.776 136.981 L 2246.776 335.615 L 2266.725 335.615 L 2266.725 383.093 L 2169.875 383.093 L 2169.875 362.745 L 2169.875 362.745 Q 2162.153 373.081 2150.248 379.379 L 2150.248 379.379 L 2150.248 379.379 Q 2138.342 385.677 2123.541 386 L 2123.541 386 Z  M 2148.639 339.814 L 2148.639 339.814 Q 2156.039 339.814 2161.992 336.261 L 2161.992 336.261 L 2161.992 336.261 Q 2167.945 332.708 2171.162 327.863 L 2171.162 327.863 L 2171.162 268.112 L 2171.162 268.112 Q 2167.623 263.913 2161.509 260.522 L 2161.509 260.522 L 2161.509 260.522 Q 2155.396 257.13 2148.639 257.13 L 2148.639 257.13 L 2148.639 257.13 Q 2136.412 257.13 2128.69 267.143 L 2128.69 267.143 L 2128.69 267.143 Q 2120.967 277.155 2120.967 296.211 L 2120.967 296.211 L 2120.967 296.211 Q 2120.967 315.59 2128.046 327.702 L 2128.046 327.702 L 2128.046 327.702 Q 2135.125 339.814 2148.639 339.814 L 2148.639 339.814 Z  M 2382.56 386 L 2382.56 386 Q 2353.279 386 2331.721 375.18 L 2331.721 375.18 L 2331.721 375.18 Q 2310.163 364.36 2298.58 344.335 L 2298.58 344.335 L 2298.58 344.335 Q 2286.996 324.311 2286.996 297.503 L 2286.996 297.503 L 2286.996 297.503 Q 2286.996 271.019 2298.258 251.478 L 2298.258 251.478 L 2298.258 251.478 Q 2309.52 231.938 2329.951 221.441 L 2329.951 221.441 L 2329.951 221.441 Q 2350.383 210.944 2377.733 210.944 L 2377.733 210.944 L 2377.733 210.944 Q 2403.152 210.944 2422.458 220.957 L 2422.458 220.957 L 2422.458 220.957 Q 2441.764 230.969 2452.382 249.379 L 2452.382 249.379 L 2452.382 249.379 Q 2463 267.789 2463 292.335 L 2463 292.335 L 2463 292.335 Q 2463 300.733 2460.426 308.484 L 2460.426 308.484 L 2362.61 308.484 L 2362.61 308.484 Q 2362.61 323.342 2373.711 332.224 L 2373.711 332.224 L 2373.711 332.224 Q 2384.812 341.106 2400.578 341.106 L 2400.578 341.106 L 2400.578 341.106 Q 2412.483 341.106 2426.802 336.907 L 2426.802 336.907 L 2426.802 336.907 Q 2441.12 332.708 2455.599 323.988 L 2455.599 323.988 L 2458.174 324.957 L 2458.174 367.267 L 2458.174 367.267 Q 2442.085 376.634 2425.032 381.317 L 2425.032 381.317 L 2425.032 381.317 Q 2407.979 386 2382.56 386 L 2382.56 386 Z  M 2362.61 280.708 L 2402.83 280.708 L 2402.83 277.478 L 2402.83 277.478 Q 2402.83 266.174 2397.682 258.099 L 2397.682 258.099 L 2397.682 258.099 Q 2392.534 250.025 2382.56 250.025 L 2382.56 250.025 L 2382.56 250.025 Q 2374.194 250.025 2368.402 258.261 L 2368.402 258.261 L 2368.402 258.261 Q 2362.61 266.497 2362.61 276.186 L 2362.61 276.186 L 2362.61 280.708 Z " fill-rule="evenodd" fill="rgb(0,0,0)"/></g><g id="Group"><g id="Group"><defs><filter id="zAMGHwIImUqJPDtEf6GlIBTXSwhm6pmZ" x="-200%" y="-200%" width="400%" height="400%"><feGaussianBlur xmlns="http://www.w3.org/2000/svg" stdDeviation="2.576165437703417"/></filter></defs><g filter="url(#zAMGHwIImUqJPDtEf6GlIBTXSwhm6pmZ)"><path d=" M 344.472 52.244 C 317.85 41.138 288.636 35 258 35 C 133.818 35 33 135.818 33 260 C 33 384.182 133.818 485 258 485 C 382.182 485 483 384.182 483 260 C 483 228.59 476.538 198.656 464.892 171.494 L 464.892 246.5 C 464.892 276.65 440.394 301.148 410.244 301.148 C 380.076 301.112 355.632 276.668 355.614 246.5 C 355.614 216.368 380.112 191.852 410.244 191.852 C 413.988 191.852 417.642 192.23 421.188 192.95 L 421.188 131.156 L 311.892 143.288 L 311.892 268.352 C 311.892 298.502 287.394 323 257.262 323 C 227.094 322.982 202.632 298.52 202.614 268.352 C 202.614 238.22 227.112 213.722 257.262 213.722 C 261.006 213.722 264.66 214.1 268.188 214.82 L 268.188 148.148 L 268.188 60.722 L 344.472 52.244 Z " fill="rgb(0,0,0)" fill-opacity="0.6"/></g><path d=" M 344.472 50.244 C 317.85 39.138 288.636 33 258 33 C 133.818 33 33 133.818 33 258 C 33 382.182 133.818 483 258 483 C 382.182 483 483 382.182 483 258 C 483 226.59 476.538 196.656 464.892 169.494 L 464.892 244.5 C 464.892 274.65 440.394 299.148 410.244 299.148 C 380.076 299.112 355.632 274.668 355.614 244.5 C 355.614 214.368 380.112 189.852 410.244 189.852 C 413.988 189.852 417.642 190.23 421.188 190.95 L 421.188 129.156 L 311.892 141.288 L 311.892 266.352 C 311.892 296.502 287.394 321 257.262 321 C 227.094 320.982 202.632 296.52 202.614 266.352 C 202.614 236.22 227.112 211.722 257.262 211.722 C 261.006 211.722 264.66 212.1 268.188 212.82 L 268.188 146.148 L 268.188 58.722 L 344.472 50.244 Z " fill="rgb(70,70,70)"/><path d=" M 268.188 150.393 C 264.822 150.105 261.438 149.961 258 149.961 C 193.434 149.961 141 202.395 141 266.961 C 141 331.527 193.434 383.961 258 383.961 C 316.536 383.961 365.082 340.887 373.434 284.655 C 362.454 274.737 355.632 260.409 355.614 244.461 C 355.614 234.273 358.404 224.733 363.354 216.597 C 352.59 193.593 334.374 174.801 311.892 163.101 L 311.892 266.313 C 311.892 296.463 287.394 320.961 257.262 320.961 C 227.094 320.943 202.632 296.481 202.614 266.313 C 202.614 236.181 227.112 211.683 257.262 211.683 C 261.006 211.683 264.66 212.061 268.188 212.781 L 268.188 150.393 Z " fill="rgb(179,229,252)" fill-opacity="0.4" style="mix-blend-mode:luminosity;"/><linearGradient id="_lgradient_2" x1="50%" y1="0%" x2="50.000000000000014%" y2="100%"><stop offset="0%" stop-opacity="1" style="stop-color:rgb(255,255,255)"/><stop offset="100%" stop-opacity="1" style="stop-color:rgb(0,0,0)"/></linearGradient><path d=" M 344.472 50.244 C 317.85 39.138 288.636 33 258 33 C 133.818 33 33 133.818 33 258 C 33 382.182 133.818 483 258 483 C 382.182 483 483 382.182 483 258 C 483 226.59 476.538 196.656 464.892 169.494 L 464.892 244.5 C 464.892 274.65 440.394 299.148 410.244 299.148 C 380.076 299.112 355.632 274.668 355.614 244.5 C 355.614 214.368 380.112 189.852 410.244 189.852 C 413.988 189.852 417.642 190.23 421.188 190.95 L 421.188 129.156 L 311.892 141.288 L 311.892 266.352 C 311.892 296.502 287.394 321 257.262 321 C 227.094 320.982 202.632 296.52 202.614 266.352 C 202.614 236.22 227.112 211.722 257.262 211.722 C 261.006 211.722 264.66 212.1 268.188 212.82 L 268.188 146.148 L 268.188 58.722 L 344.472 50.244 Z " fill="url(#_lgradient_2)" fill-opacity="0.4" style="mix-blend-mode:overlay;"/><radialGradient id="_rgradient_2" fx="50%" fy="50%" cx="50%" cy="50%" r="50%" gradientTransform="matrix(1 0 0 1 -0.17796610169491528 -0.11622276029055684)"><stop offset="0%" stop-opacity="1" style="stop-color:rgb(255,255,255)"/><stop offset="100%" stop-opacity="1" style="stop-color:rgb(0,0,0)"/></radialGradient><path d=" M 344.472 50.244 C 317.85 39.138 288.636 33 258 33 C 133.818 33 33 133.818 33 258 C 33 382.182 133.818 483 258 483 C 382.182 483 483 382.182 483 258 C 483 226.59 476.538 196.656 464.892 169.494 L 464.892 244.5 C 464.892 274.65 440.394 299.148 410.244 299.148 C 380.076 299.112 355.632 274.668 355.614 244.5 C 355.614 214.368 380.112 189.852 410.244 189.852 C 413.988 189.852 417.642 190.23 421.188 190.95 L 421.188 129.156 L 311.892 141.288 L 311.892 266.352 C 311.892 296.502 287.394 321 257.262 321 C 227.094 320.982 202.632 296.52 202.614 266.352 C 202.614 236.22 227.112 211.722 257.262 211.722 C 261.006 211.722 264.66 212.1 268.188 212.82 L 268.188 146.148 L 268.188 58.722 L 344.472 50.244 Z " style="mix-blend-mode:overlay;:undefined;" fill="url(#_rgradient_2)" fill-opacity="0.4"/><path d=" M 344.472 50.244 C 317.85 39.138 288.636 33 258 33 C 133.818 33 33 133.818 33 258 C 33 382.182 133.818 483 258 483 C 382.182 483 483 382.182 483 258 C 483 226.59 476.538 196.656 464.892 169.494 L 464.892 244.5 C 464.892 274.65 440.394 299.148 410.244 299.148 C 380.076 299.112 355.632 274.668 355.614 244.5 C 355.614 214.368 380.112 189.852 410.244 189.852 C 413.988 189.852 417.642 190.23 421.188 190.95 L 421.188 129.156 L 311.892 141.288 L 311.892 266.352 C 311.892 296.502 287.394 321 257.262 321 C 227.094 320.982 202.632 296.52 202.614 266.352 C 202.614 236.22 227.112 211.722 257.262 211.722 C 261.006 211.722 264.66 212.1 268.188 212.82 L 268.188 146.148 L 268.188 58.722 L 344.472 50.244 Z " style="mix-blend-mode:hard-light;:undefined;" fill="none" fill-opacity="0.6"/></g></g></g></svg>