<?xml version="1.0" standalone="no"?><!-- Generator: Gravit.io --><svg xmlns="http://www.w3.org/2000/svg" xmlns:xlink="http://www.w3.org/1999/xlink" style="isolation:isolate" viewBox="0 0 512 512" width="512" height="512"><defs><clipPath id="_clipPath_2izDnRXAl3Ou1qDsoplYdOWEDRO6Wa5y"><rect width="512" height="512"/></clipPath></defs><g clip-path="url(#_clipPath_2izDnRXAl3Ou1qDsoplYdOWEDRO6Wa5y)"><g id="Group"><g id="Group"><defs><filter id="hhrcRQlcvAHiwYPdBoBpTwisgUJTURfF" x="-200%" y="-200%" width="400%" height="400%"><feGaussianBlur xmlns="http://www.w3.org/2000/svg" stdDeviation="2.576165437703417"/></filter></defs><g filter="url(#hhrcRQlcvAHiwYPdBoBpTwisgUJTURfF)"><path d=" M 30 257 C 30 131.715 131.715 30 257 30 C 382.285 30 484 131.715 484 257 C 484 382.285 382.285 484 257 484 C 131.715 484 30 382.285 30 257 Z " fill="rgb(0,0,0)" fill-opacity="0.4"/></g><linearGradient id="_lgradient_24" x1="49.999999999999986%" y1="0%" x2="49.99999999999999%" y2="100%"><stop offset="0%" stop-opacity="1" style="stop-color:rgb(255,255,255)"/><stop offset="100%" stop-opacity="1" style="stop-color:rgb(209,209,209)"/></linearGradient><path d=" M 33 257 C 33 133.371 133.371 33 257 33 C 380.629 33 481 133.371 481 257 C 481 380.629 380.629 481 257 481 C 133.371 481 33 380.629 33 257 Z " fill="url(#_lgradient_24)"/></g><g id="Group"><defs><filter id="kD4UGquvolZkPbqlOQw1M55rFvdHHTka" x="-200%" y="-200%" width="400%" height="400%"><feGaussianBlur xmlns="http://www.w3.org/2000/svg" stdDeviation="2.576165437703417"/></filter></defs><g filter="url(#kD4UGquvolZkPbqlOQw1M55rFvdHHTka)"><path d=" M 334.862 65.826 C 310.429 55.633 283.617 50 255.5 50 C 141.529 50 49 142.529 49 256.5 C 49 370.471 141.529 463 255.5 463 C 369.471 463 462 370.471 462 256.5 C 462 227.673 456.069 200.2 445.381 175.271 L 445.381 244.11 C 445.381 271.781 422.897 294.265 395.226 294.265 C 367.539 294.232 345.104 271.798 345.088 244.11 C 345.088 216.456 367.572 193.955 395.226 193.955 C 398.662 193.955 402.016 194.302 405.27 194.963 L 405.27 138.25 L 304.961 149.384 L 304.961 264.165 C 304.961 291.836 282.477 314.32 254.823 314.32 C 227.135 314.303 204.684 291.853 204.668 264.165 C 204.668 236.511 227.152 214.027 254.823 214.027 C 258.259 214.027 261.612 214.374 264.85 215.035 L 264.85 153.845 L 264.85 73.607 L 334.862 65.826 Z " fill="rgb(0,0,0)" fill-opacity="0.4"/></g><path d=" M 334.862 64.826 C 310.429 54.633 283.617 49 255.5 49 C 141.529 49 49 141.529 49 255.5 C 49 369.471 141.529 462 255.5 462 C 369.471 462 462 369.471 462 255.5 C 462 226.673 456.069 199.2 445.381 174.271 L 445.381 243.11 C 445.381 270.781 422.897 293.265 395.226 293.265 C 367.539 293.232 345.104 270.798 345.088 243.11 C 345.088 215.456 367.572 192.955 395.226 192.955 C 398.662 192.955 402.016 193.302 405.27 193.963 L 405.27 137.25 L 304.961 148.384 L 304.961 263.165 C 304.961 290.836 282.477 313.32 254.823 313.32 C 227.135 313.303 204.684 290.853 204.668 263.165 C 204.668 235.511 227.152 213.027 254.823 213.027 C 258.259 213.027 261.612 213.374 264.85 214.035 L 264.85 152.845 L 264.85 72.607 L 334.862 64.826 Z " fill="rgb(3,169,244)"/><path d=" M 264.85 156.776 C 261.761 156.512 258.655 156.38 255.5 156.38 C 196.243 156.38 148.12 204.503 148.12 263.76 C 148.12 323.017 196.243 371.14 255.5 371.14 C 309.223 371.14 353.777 331.608 361.443 279.999 C 351.366 270.897 345.104 257.747 345.088 243.11 C 345.088 233.76 347.649 225.004 352.192 217.537 C 342.313 196.424 325.594 179.178 304.961 168.44 L 304.961 263.165 C 304.961 290.836 282.477 313.32 254.823 313.32 C 227.135 313.303 204.684 290.853 204.668 263.165 C 204.668 235.511 227.152 213.027 254.823 213.027 C 258.259 213.027 261.612 213.374 264.85 214.035 L 264.85 156.776 Z " fill="rgb(179,229,252)"/><g style="mix-blend-mode:screen;"><linearGradient id="_lgradient_25" x1="50%" y1="0%" x2="50.000000000000014%" y2="100%"><stop offset="1.7391304347826086%" stop-opacity="1" style="stop-color:rgb(162,162,162)"/><stop offset="100%" stop-opacity="1" style="stop-color:rgb(0,0,0)"/></linearGradient><path d=" M 334.862 64.826 C 310.429 54.633 283.617 49 255.5 49 C 141.529 49 49 141.529 49 255.5 C 49 369.471 141.529 462 255.5 462 C 369.471 462 462 369.471 462 255.5 C 462 226.673 456.069 199.2 445.381 174.271 L 445.381 243.11 C 445.381 270.781 422.897 293.265 395.226 293.265 C 367.539 293.232 345.104 270.798 345.088 243.11 C 345.088 215.456 367.572 192.955 395.226 192.955 C 398.662 192.955 402.016 193.302 405.27 193.963 L 405.27 137.25 L 304.961 148.384 L 304.961 263.165 C 304.961 290.836 282.477 313.32 254.823 313.32 C 227.135 313.303 204.684 290.853 204.668 263.165 C 204.668 235.511 227.152 213.027 254.823 213.027 C 258.259 213.027 261.612 213.374 264.85 214.035 L 264.85 152.845 L 264.85 72.607 L 334.862 64.826 Z " fill="url(#_lgradient_25)" style="mix-blend-mode:screen;"/></g></g></g></g></svg>