<?xml version="1.0" standalone="no"?><!-- Generator: Gravit.io --><svg xmlns="http://www.w3.org/2000/svg" xmlns:xlink="http://www.w3.org/1999/xlink" style="isolation:isolate" viewBox="0 0 512 512" width="512" height="512"><defs><clipPath id="_clipPath_eX2GCnVERopj2NESrWaLre1MHnBKTJpP"><rect width="512" height="512"/></clipPath></defs><g clip-path="url(#_clipPath_eX2GCnVERopj2NESrWaLre1MHnBKTJpP)"><g id="Group"><g id="Group"><defs><filter id="GDDicWbn3QOIluEEMHj4bALPJYpnYIyK" x="-200%" y="-200%" width="400%" height="400%"><feGaussianBlur xmlns="http://www.w3.org/2000/svg" stdDeviation="2.146804531419514"/></filter></defs><g filter="url(#GDDicWbn3QOIluEEMHj4bALPJYpnYIyK)"><path d=" M 33.065 257.032 C 33.065 133.421 133.421 33.065 257.032 33.065 C 380.643 33.065 481 133.421 481 257.032 C 481 380.643 380.643 481 257.032 481 C 133.421 481 33.065 380.643 33.065 257.032 Z " fill="rgb(0,0,0)" fill-opacity="0.33"/></g><linearGradient id="_lgradient_20" x1="50%" y1="0%" x2="50.000000000000014%" y2="100%"><stop offset="0%" stop-opacity="1" style="stop-color:rgb(255,255,255)"/><stop offset="98.69565217391305%" stop-opacity="1" style="stop-color:rgb(232,232,232)"/></linearGradient><path d=" M 33.065 257.032 C 33.065 133.421 133.421 33.065 257.032 33.065 C 380.643 33.065 481 133.421 481 257.032 C 481 380.643 380.643 481 257.032 481 C 133.421 481 33.065 380.643 33.065 257.032 Z " fill="url(#_lgradient_20)"/></g><g id="Group"><defs><filter id="HWTNGczL7enBdSxsm79HHOSjfwLG45JH" x="-200%" y="-200%" width="400%" height="400%"><feGaussianBlur xmlns="http://www.w3.org/2000/svg" stdDeviation="1.2880827188517086"/></filter></defs><g filter="url(#HWTNGczL7enBdSxsm79HHOSjfwLG45JH)"><path d=" M 334.862 65.826 C 310.429 55.633 283.617 50 255.5 50 C 141.529 50 49 142.529 49 256.5 C 49 370.471 141.529 463 255.5 463 C 369.471 463 462 370.471 462 256.5 C 462 227.673 456.069 200.2 445.381 175.271 L 445.381 244.11 C 445.381 271.781 422.897 294.265 395.226 294.265 C 367.539 294.232 345.104 271.798 345.088 244.11 C 345.088 216.456 367.572 193.955 395.226 193.955 C 398.662 193.955 402.016 194.302 405.27 194.963 L 405.27 138.25 L 304.961 149.384 L 304.961 264.165 C 304.961 291.836 282.477 314.32 254.823 314.32 C 227.135 314.303 204.684 291.853 204.668 264.165 C 204.668 236.511 227.152 214.027 254.823 214.027 C 258.259 214.027 261.612 214.374 264.85 215.035 L 264.85 153.845 L 264.85 73.607 L 334.862 65.826 Z " fill="rgb(0,0,0)" fill-opacity="0.22"/></g><path d=" M 334.862 64.826 C 310.429 54.633 283.617 49 255.5 49 C 141.529 49 49 141.529 49 255.5 C 49 369.471 141.529 462 255.5 462 C 369.471 462 462 369.471 462 255.5 C 462 226.673 456.069 199.2 445.381 174.271 L 445.381 243.11 C 445.381 270.781 422.897 293.265 395.226 293.265 C 367.539 293.232 345.104 270.798 345.088 243.11 C 345.088 215.456 367.572 192.955 395.226 192.955 C 398.662 192.955 402.016 193.302 405.27 193.963 L 405.27 137.25 L 304.961 148.384 L 304.961 263.165 C 304.961 290.836 282.477 313.32 254.823 313.32 C 227.135 313.303 204.684 290.853 204.668 263.165 C 204.668 235.511 227.152 213.027 254.823 213.027 C 258.259 213.027 261.612 213.374 264.85 214.035 L 264.85 152.845 L 264.85 72.607 L 334.862 64.826 Z " fill="rgb(3,169,244)"/><path d=" M 264.85 156.776 C 261.761 156.512 258.655 156.38 255.5 156.38 C 196.243 156.38 148.12 204.503 148.12 263.76 C 148.12 323.017 196.243 371.14 255.5 371.14 C 309.223 371.14 353.777 331.608 361.443 279.999 C 351.366 270.897 345.104 257.747 345.088 243.11 C 345.088 233.76 347.649 225.004 352.192 217.537 C 342.313 196.424 325.594 179.178 304.961 168.44 L 304.961 263.165 C 304.961 290.836 282.477 313.32 254.823 313.32 C 227.135 313.303 204.684 290.853 204.668 263.165 C 204.668 235.511 227.152 213.027 254.823 213.027 C 258.259 213.027 261.612 213.374 264.85 214.035 L 264.85 156.776 Z " fill="rgb(179,229,252)"/><g style="mix-blend-mode:screen;"><linearGradient id="_lgradient_21" x1="50%" y1="0%" x2="50.000000000000014%" y2="100%"><stop offset="1.7391304347826086%" stop-opacity="1" style="stop-color:rgb(255,255,255)"/><stop offset="100%" stop-opacity="1" style="stop-color:rgb(0,0,0)"/></linearGradient><path d=" M 334.862 64.826 C 310.429 54.633 283.617 49 255.5 49 C 141.529 49 49 141.529 49 255.5 C 49 369.471 141.529 462 255.5 462 C 369.471 462 462 369.471 462 255.5 C 462 226.673 456.069 199.2 445.381 174.271 L 445.381 243.11 C 445.381 270.781 422.897 293.265 395.226 293.265 C 367.539 293.232 345.104 270.798 345.088 243.11 C 345.088 215.456 367.572 192.955 395.226 192.955 C 398.662 192.955 402.016 193.302 405.27 193.963 L 405.27 137.25 L 304.961 148.384 L 304.961 263.165 C 304.961 290.836 282.477 313.32 254.823 313.32 C 227.135 313.303 204.684 290.853 204.668 263.165 C 204.668 235.511 227.152 213.027 254.823 213.027 C 258.259 213.027 261.612 213.374 264.85 214.035 L 264.85 152.845 L 264.85 72.607 L 334.862 64.826 Z " fill="url(#_lgradient_21)" fill-opacity="0.33" style="mix-blend-mode:screen;"/></g></g></g></g></svg>