<?xml version="1.0" standalone="no"?><!-- Generator: Gravit.io --><svg xmlns="http://www.w3.org/2000/svg" xmlns:xlink="http://www.w3.org/1999/xlink" style="isolation:isolate" viewBox="0 0 512 512" width="512" height="512"><defs><clipPath id="_clipPath_i4IddukDvgTyXsMeL1LJmxBl2QlFl0aJ"><rect width="512" height="512"/></clipPath></defs><g clip-path="url(#_clipPath_i4IddukDvgTyXsMeL1LJmxBl2QlFl0aJ)"><g id="Group"><g id="Group"><defs><filter id="SJWlKZ1ukkZiT9dGWqS9umCp41jd6dBT" x="-200%" y="-200%" width="400%" height="400%"><feGaussianBlur xmlns="http://www.w3.org/2000/svg" stdDeviation="2.576165437703417"/></filter></defs><g filter="url(#SJWlKZ1ukkZiT9dGWqS9umCp41jd6dBT)"><path d=" M 344.472 52.244 C 317.85 41.138 288.636 35 258 35 C 133.818 35 33 135.818 33 260 C 33 384.182 133.818 485 258 485 C 382.182 485 483 384.182 483 260 C 483 228.59 476.538 198.656 464.892 171.494 L 464.892 246.5 C 464.892 276.65 440.394 301.148 410.244 301.148 C 380.076 301.112 355.632 276.668 355.614 246.5 C 355.614 216.368 380.112 191.852 410.244 191.852 C 413.988 191.852 417.642 192.23 421.188 192.95 L 421.188 131.156 L 311.892 143.288 L 311.892 268.352 C 311.892 298.502 287.394 323 257.262 323 C 227.094 322.982 202.632 298.52 202.614 268.352 C 202.614 238.22 227.112 213.722 257.262 213.722 C 261.006 213.722 264.66 214.1 268.188 214.82 L 268.188 148.148 L 268.188 60.722 L 344.472 52.244 Z " fill="rgb(0,0,0)" fill-opacity="0.6"/></g><path d=" M 344.472 50.244 C 317.85 39.138 288.636 33 258 33 C 133.818 33 33 133.818 33 258 C 33 382.182 133.818 483 258 483 C 382.182 483 483 382.182 483 258 C 483 226.59 476.538 196.656 464.892 169.494 L 464.892 244.5 C 464.892 274.65 440.394 299.148 410.244 299.148 C 380.076 299.112 355.632 274.668 355.614 244.5 C 355.614 214.368 380.112 189.852 410.244 189.852 C 413.988 189.852 417.642 190.23 421.188 190.95 L 421.188 129.156 L 311.892 141.288 L 311.892 266.352 C 311.892 296.502 287.394 321 257.262 321 C 227.094 320.982 202.632 296.52 202.614 266.352 C 202.614 236.22 227.112 211.722 257.262 211.722 C 261.006 211.722 264.66 212.1 268.188 212.82 L 268.188 146.148 L 268.188 58.722 L 344.472 50.244 Z " fill="rgb(70,70,70)"/><path d=" M 268.188 150.393 C 264.822 150.105 261.438 149.961 258 149.961 C 193.434 149.961 141 202.395 141 266.961 C 141 331.527 193.434 383.961 258 383.961 C 316.536 383.961 365.082 340.887 373.434 284.655 C 362.454 274.737 355.632 260.409 355.614 244.461 C 355.614 234.273 358.404 224.733 363.354 216.597 C 352.59 193.593 334.374 174.801 311.892 163.101 L 311.892 266.313 C 311.892 296.463 287.394 320.961 257.262 320.961 C 227.094 320.943 202.632 296.481 202.614 266.313 C 202.614 236.181 227.112 211.683 257.262 211.683 C 261.006 211.683 264.66 212.061 268.188 212.781 L 268.188 150.393 Z " fill="rgb(179,229,252)" fill-opacity="0.4" style="mix-blend-mode:luminosity;"/><linearGradient id="_lgradient_1" x1="50%" y1="0%" x2="50.000000000000014%" y2="100%"><stop offset="0%" stop-opacity="1" style="stop-color:rgb(255,255,255)"/><stop offset="100%" stop-opacity="1" style="stop-color:rgb(0,0,0)"/></linearGradient><path d=" M 344.472 50.244 C 317.85 39.138 288.636 33 258 33 C 133.818 33 33 133.818 33 258 C 33 382.182 133.818 483 258 483 C 382.182 483 483 382.182 483 258 C 483 226.59 476.538 196.656 464.892 169.494 L 464.892 244.5 C 464.892 274.65 440.394 299.148 410.244 299.148 C 380.076 299.112 355.632 274.668 355.614 244.5 C 355.614 214.368 380.112 189.852 410.244 189.852 C 413.988 189.852 417.642 190.23 421.188 190.95 L 421.188 129.156 L 311.892 141.288 L 311.892 266.352 C 311.892 296.502 287.394 321 257.262 321 C 227.094 320.982 202.632 296.52 202.614 266.352 C 202.614 236.22 227.112 211.722 257.262 211.722 C 261.006 211.722 264.66 212.1 268.188 212.82 L 268.188 146.148 L 268.188 58.722 L 344.472 50.244 Z " fill="url(#_lgradient_1)" fill-opacity="0.4" style="mix-blend-mode:overlay;"/><radialGradient id="_rgradient_1" fx="50%" fy="50%" cx="50%" cy="50%" r="50%" gradientTransform="matrix(1 0 0 1 -0.17796610169491528 -0.11622276029055684)"><stop offset="0%" stop-opacity="1" style="stop-color:rgb(255,255,255)"/><stop offset="100%" stop-opacity="1" style="stop-color:rgb(0,0,0)"/></radialGradient><path d=" M 344.472 50.244 C 317.85 39.138 288.636 33 258 33 C 133.818 33 33 133.818 33 258 C 33 382.182 133.818 483 258 483 C 382.182 483 483 382.182 483 258 C 483 226.59 476.538 196.656 464.892 169.494 L 464.892 244.5 C 464.892 274.65 440.394 299.148 410.244 299.148 C 380.076 299.112 355.632 274.668 355.614 244.5 C 355.614 214.368 380.112 189.852 410.244 189.852 C 413.988 189.852 417.642 190.23 421.188 190.95 L 421.188 129.156 L 311.892 141.288 L 311.892 266.352 C 311.892 296.502 287.394 321 257.262 321 C 227.094 320.982 202.632 296.52 202.614 266.352 C 202.614 236.22 227.112 211.722 257.262 211.722 C 261.006 211.722 264.66 212.1 268.188 212.82 L 268.188 146.148 L 268.188 58.722 L 344.472 50.244 Z " style="mix-blend-mode:overlay;:undefined;" fill="url(#_rgradient_1)" fill-opacity="0.4"/><path d=" M 344.472 50.244 C 317.85 39.138 288.636 33 258 33 C 133.818 33 33 133.818 33 258 C 33 382.182 133.818 483 258 483 C 382.182 483 483 382.182 483 258 C 483 226.59 476.538 196.656 464.892 169.494 L 464.892 244.5 C 464.892 274.65 440.394 299.148 410.244 299.148 C 380.076 299.112 355.632 274.668 355.614 244.5 C 355.614 214.368 380.112 189.852 410.244 189.852 C 413.988 189.852 417.642 190.23 421.188 190.95 L 421.188 129.156 L 311.892 141.288 L 311.892 266.352 C 311.892 296.502 287.394 321 257.262 321 C 227.094 320.982 202.632 296.52 202.614 266.352 C 202.614 236.22 227.112 211.722 257.262 211.722 C 261.006 211.722 264.66 212.1 268.188 212.82 L 268.188 146.148 L 268.188 58.722 L 344.472 50.244 Z " style="mix-blend-mode:hard-light;:undefined;" fill="none" fill-opacity="0.6"/></g></g></g></svg>