<?xml version="1.0" standalone="no"?><!-- Generator: Gravit.io --><svg xmlns="http://www.w3.org/2000/svg" xmlns:xlink="http://www.w3.org/1999/xlink" style="isolation:isolate" viewBox="0 0 512 512" width="512" height="512"><defs><clipPath id="_clipPath_kKYoavfZPoYPRScepj5xQOAINpYtTFTJ"><rect width="512" height="512"/></clipPath></defs><g clip-path="url(#_clipPath_kKYoavfZPoYPRScepj5xQOAINpYtTFTJ)"><g id="Group"><g id="Group"><path d=" M 343.108 50.191 C 316.608 39.136 287.528 33.026 257.032 33.026 C 133.42 33.026 33.065 133.382 33.065 256.994 C 33.065 380.606 133.42 480.961 257.032 480.961 C 380.645 480.961 481 380.606 481 256.994 C 481 225.728 474.568 195.931 462.975 168.894 L 462.975 243.556 C 462.975 273.567 438.589 297.953 408.578 297.953 C 378.548 297.917 354.216 273.585 354.198 243.556 C 354.198 213.562 378.584 189.158 408.578 189.158 C 412.305 189.158 415.942 189.535 419.472 190.251 L 419.472 128.741 L 310.677 140.817 L 310.677 265.307 C 310.677 295.319 286.291 319.705 256.298 319.705 C 226.268 319.687 201.918 295.337 201.9 265.307 C 201.9 235.314 226.286 210.928 256.298 210.928 C 260.025 210.928 263.662 211.304 267.174 212.021 L 267.174 145.655 L 267.174 58.63 L 343.108 50.191 Z " fill="rgb(71,71,71)"/><path d=" M 267.174 149.919 C 263.823 149.633 260.455 149.489 257.032 149.489 C 192.763 149.489 140.569 201.683 140.569 265.952 C 140.569 330.222 192.763 382.416 257.032 382.416 C 315.3 382.416 363.623 339.539 371.937 283.565 C 361.007 273.693 354.216 259.431 354.198 243.556 C 354.198 233.414 356.976 223.918 361.903 215.82 C 351.188 192.921 333.056 174.215 310.677 162.569 L 310.677 265.307 C 310.677 295.319 286.291 319.705 256.298 319.705 C 226.268 319.687 201.918 295.337 201.9 265.307 C 201.9 235.314 226.286 210.928 256.298 210.928 C 260.025 210.928 263.662 211.304 267.174 212.021 L 267.174 149.919 Z " fill="rgb(178,178,178)"/></g></g></g></svg>